<?xml version="1.0" encoding="UTF-8" standalone="no"?>
<!-- Created with Inkscape (http://www.inkscape.org/) -->

<svg
   xmlns:dc="http://purl.org/dc/elements/1.1/"
   xmlns:cc="http://creativecommons.org/ns#"
   xmlns:rdf="http://www.w3.org/1999/02/22-rdf-syntax-ns#"
   xmlns:svg="http://www.w3.org/2000/svg"
   xmlns="http://www.w3.org/2000/svg"
   xmlns:sodipodi="http://sodipodi.sourceforge.net/DTD/sodipodi-0.dtd"
   xmlns:inkscape="http://www.inkscape.org/namespaces/inkscape"
   width="968"
   height="968"
   viewBox="0 0 256.11667 256.11667"
   version="1.1"
   id="svg6332"
   inkscape:version="0.92.1 r15371"
   sodipodi:docname="iservdb.svg"
   inkscape:export-filename="S:\github\iservdb_256.png"
   inkscape:export-xdpi="25.914923"
   inkscape:export-ydpi="25.914923">
  <defs
     id="defs6326">
    <clipPath
       clipPathUnits="userSpaceOnUse"
       id="clipPath6226">
      <path
         d="M 0,5725.982 H 2324.413 V 0 H 0 Z"
         id="path6224"
         inkscape:connector-curvature="0" />
    </clipPath>
  </defs>
  <sodipodi:namedview
     id="base"
     pagecolor="#ffffff"
     bordercolor="#666666"
     borderopacity="1.0"
     inkscape:pageopacity="0"
     inkscape:pageshadow="2"
     inkscape:zoom="0.35"
     inkscape:cx="88.228503"
     inkscape:cy="295.69461"
     inkscape:document-units="mm"
     inkscape:current-layer="layer1"
     showgrid="false"
     units="px"
     fit-margin-top="10"
     fit-margin-left="10"
     fit-margin-right="10"
     fit-margin-bottom="10"
     inkscape:window-width="1366"
     inkscape:window-height="705"
     inkscape:window-x="-8"
     inkscape:window-y="-8"
     inkscape:window-maximized="1" />
  <metadata
     id="metadata6329">
    <rdf:RDF>
      <cc:Work
         rdf:about="">
        <dc:format>image/svg+xml</dc:format>
        <dc:type
           rdf:resource="http://purl.org/dc/dcmitype/StillImage" />
        <dc:title></dc:title>
      </cc:Work>
    </rdf:RDF>
  </metadata>
  <g
     inkscape:label="圖層 1"
     inkscape:groupmode="layer"
     id="layer1"
     transform="translate(44.888435,89.523674)">
    <g
       id="g6600"
       transform="matrix(0.35277777,0,0,-0.35277777,-86.721881,1655.4661)">
      <g
         id="g7518"
         transform="translate(2.1428572,244.28572)">
        <g
           transform="translate(376.4956,4462.3501)"
           id="g6228">
          <path
             inkscape:connector-curvature="0"
             id="path6230"
             style="fill:#ed9027;fill-opacity:1;fill-rule:nonzero;stroke:none"
             d="m 0,0 c 0,-10.158 -18.391,-18.411 -41.082,-18.411 -22.674,0 -41.072,8.253 -41.072,18.411 0,10.159 18.398,18.405 41.072,18.405 C -18.391,18.405 0,10.159 0,0" />
        </g>
        <g
           transform="translate(387.5254,4461.7612)"
           id="g6232">
          <path
             inkscape:connector-curvature="0"
             id="path6234"
             style="fill:#ed9027;fill-opacity:1;fill-rule:nonzero;stroke:none"
             d="m 0,0 c -0.766,-12.039 -24.545,-23.015 -52.112,-23.015 -28.038,0 -50.533,9.942 -50.533,22.262 0,0.183 0.023,-1.036 0.033,-1.036 l -0.596,1.259 0.884,-25.904 c 8.982,-11.128 27.613,-19.262 49.017,-19.157 27.842,0.15 45.965,8.762 52.711,20.348 l 0.478,22.407 C -0.118,-2.567 0.19,-0.262 0,0" />
        </g>
        <g
           transform="translate(387.5254,4434.1348)"
           id="g6236">
          <path
             inkscape:connector-curvature="0"
             id="path6238"
             style="fill:#ed9027;fill-opacity:1;fill-rule:nonzero;stroke:none"
             d="m 0,0 c -0.766,-11.71 -24.545,-22.406 -52.112,-22.406 -28.038,0 -50.533,9.68 -50.533,21.692 0,0.158 0.023,-1.021 0.033,-1.021 l -0.596,1.231 0.884,-25.229 c 8.982,-10.84 27.613,-18.764 49.017,-18.647 27.842,0.138 45.965,8.528 52.711,19.8 l 0.478,21.836 C -0.118,-2.489 0.19,-0.255 0,0" />
        </g>
        <g
           transform="translate(387.5254,4408.3101)"
           id="g6240">
          <path
             inkscape:connector-curvature="0"
             id="path6242"
             style="fill:#ed9027;fill-opacity:1;fill-rule:nonzero;stroke:none"
             d="m 0,0 c -0.766,-12.182 -24.545,-23.304 -52.112,-23.304 -28.038,0 -50.533,10.066 -50.533,22.551 0,0.177 0.023,-1.055 0.033,-1.055 l -0.596,1.271 0.884,-26.237 c 8.982,-11.279 27.613,-19.512 49.017,-19.4 27.842,0.15 45.965,8.881 52.711,20.611 l 0.478,22.701 C -0.118,-2.587 0.19,-0.275 0,0" />
        </g>
        <g
           transform="translate(488.0479,4462.3501)"
           id="g6244">
          <path
             inkscape:connector-curvature="0"
             id="path6246"
             style="fill:#42a732;fill-opacity:1;fill-rule:nonzero;stroke:none"
             d="m 0,0 c 0,-10.158 -18.391,-18.411 -41.079,-18.411 -22.68,0 -41.071,8.253 -41.071,18.411 0,10.159 18.391,18.405 41.071,18.405 C -18.391,18.405 0,10.159 0,0" />
        </g>
        <g
           transform="translate(499.0776,4461.7612)"
           id="g6248">
          <path
             inkscape:connector-curvature="0"
             id="path6250"
             style="fill:#42a732;fill-opacity:1;fill-rule:nonzero;stroke:none"
             d="m 0,0 c -0.766,-12.039 -24.541,-23.015 -52.108,-23.015 -28.039,0 -50.537,9.942 -50.537,22.262 0,0.183 0.02,-1.036 0.034,-1.036 l -0.597,1.259 0.883,-25.904 c 8.988,-11.128 27.614,-19.262 49.018,-19.157 27.842,0.15 45.965,8.762 52.711,20.348 l 0.478,22.407 C -0.118,-2.567 0.19,-0.262 0,0" />
        </g>
        <g
           transform="translate(499.0776,4434.1348)"
           id="g6252">
          <path
             inkscape:connector-curvature="0"
             id="path6254"
             style="fill:#42a732;fill-opacity:1;fill-rule:nonzero;stroke:none"
             d="m 0,0 c -0.766,-11.71 -24.541,-22.406 -52.108,-22.406 -28.039,0 -50.537,9.68 -50.537,21.692 0,0.158 0.02,-1.021 0.034,-1.021 l -0.597,1.231 0.883,-25.229 c 8.988,-10.84 27.614,-18.764 49.018,-18.647 27.842,0.138 45.965,8.528 52.711,19.8 l 0.478,21.836 C -0.118,-2.489 0.19,-0.255 0,0" />
        </g>
        <g
           transform="translate(499.0776,4408.3101)"
           id="g6256">
          <path
             inkscape:connector-curvature="0"
             id="path6258"
             style="fill:#42a732;fill-opacity:1;fill-rule:nonzero;stroke:none"
             d="m 0,0 c -0.766,-12.182 -24.541,-23.304 -52.108,-23.304 -28.039,0 -50.537,10.066 -50.537,22.551 0,0.177 0.02,-1.055 0.034,-1.055 l -0.597,1.271 0.883,-26.237 c 8.988,-11.279 27.614,-19.512 49.018,-19.4 27.842,0.15 45.965,8.881 52.711,20.611 l 0.478,22.701 C -0.118,-2.587 0.19,-0.275 0,0" />
        </g>
        <g
           transform="translate(264.9434,4462.3501)"
           id="g6260">
          <path
             inkscape:connector-curvature="0"
             id="path6262"
             style="fill:#e72e2e;fill-opacity:1;fill-rule:nonzero;stroke:none"
             d="m 0,0 c 0,-10.158 -18.391,-18.411 -41.082,-18.411 -22.674,0 -41.072,8.253 -41.072,18.411 0,10.159 18.398,18.405 41.072,18.405 C -18.391,18.405 0,10.159 0,0" />
        </g>
        <g
           transform="translate(275.9727,4461.7612)"
           id="g6264">
          <path
             inkscape:connector-curvature="0"
             id="path6266"
             style="fill:#e72e2e;fill-opacity:1;fill-rule:nonzero;stroke:none"
             d="m 0,0 c -0.766,-12.039 -24.544,-23.015 -52.111,-23.015 -28.038,0 -50.534,9.942 -50.534,22.262 0,0.183 0.023,-1.036 0.034,-1.036 l -0.597,1.259 0.884,-25.904 c 8.983,-11.128 27.614,-19.262 49.018,-19.157 27.841,0.15 45.965,8.762 52.707,20.348 L -0.12,-2.836 C -0.12,-2.567 0.188,-0.262 0,0" />
        </g>
        <g
           transform="translate(275.9727,4434.1348)"
           id="g6268">
          <path
             inkscape:connector-curvature="0"
             id="path6270"
             style="fill:#e72e2e;fill-opacity:1;fill-rule:nonzero;stroke:none"
             d="m 0,0 c -0.766,-11.71 -24.544,-22.406 -52.111,-22.406 -28.038,0 -50.534,9.68 -50.534,21.692 0,0.158 0.023,-1.021 0.034,-1.021 l -0.597,1.231 0.884,-25.229 c 8.983,-10.84 27.614,-18.764 49.018,-18.647 27.841,0.138 45.965,8.528 52.707,19.8 L -0.12,-2.744 C -0.12,-2.489 0.188,-0.255 0,0" />
        </g>
        <g
           transform="translate(275.9727,4408.3101)"
           id="g6272">
          <path
             inkscape:connector-curvature="0"
             id="path6274"
             style="fill:#e72e2e;fill-opacity:1;fill-rule:nonzero;stroke:none"
             d="m 0,0 c -0.766,-12.182 -24.544,-23.304 -52.111,-23.304 -28.038,0 -50.534,10.066 -50.534,22.551 0,0.177 0.023,-1.055 0.034,-1.055 l -0.597,1.271 0.884,-26.237 c 8.983,-11.279 27.614,-19.512 49.018,-19.4 27.841,0.15 45.965,8.881 52.707,20.611 L -0.12,-2.862 C -0.12,-2.587 0.188,-0.275 0,0" />
        </g>
        <path
           inkscape:connector-curvature="0"
           id="path6276"
           style="fill:#000100;fill-opacity:1;fill-rule:nonzero;stroke:#ffffff;stroke-width:0.25;stroke-linecap:butt;stroke-linejoin:miter;stroke-miterlimit:4;stroke-dasharray:none;stroke-opacity:1"
           d="m 158.873,4231.504 h -32.665 v 131.955 h 32.665 z m 0,139.237 h -32.665 v 23.743 h 32.665 z" />
        <g
           transform="translate(171.0098,4279.3428)"
           id="g6278">
          <path
             inkscape:connector-curvature="0"
             id="path6280"
             style="fill:#000100;fill-opacity:1;fill-rule:nonzero;stroke:none"
             d="m 0,0 h 32.78 v -28.747 c 0,-2.855 2.273,-4.276 6.822,-4.276 4.392,0 6.588,1.421 6.588,4.276 v 14.849 c 0,4.539 -3.975,9.87 -11.919,15.994 C 18.912,13.446 9.359,21.083 5.616,24.974 1.87,28.877 0,33.16 0,37.816 v 14.069 c 0,16.25 13.924,24.371 41.783,24.371 24.944,0 37.418,-7.395 37.418,-22.183 V 32.407 H 46.42 v 23.061 c 0,2.509 -1.83,3.753 -5.492,3.753 -4.287,0 -6.428,-2.411 -6.428,-7.244 l 0.691,-8.128 C 35.191,39.186 39.249,33.776 47.366,27.6 62.457,16.59 72.052,8.9 76.148,4.539 c 4.097,-4.37 6.147,-9.321 6.147,-14.848 V -26.297 C 82.295,-42.959 68.328,-51.29 40.4,-51.29 13.466,-51.29 0,-43.712 0,-28.577 Z" />
        </g>
        <g
           style="fill:#000000;fill-opacity:1"
           transform="translate(171.0098,4279.3428)"
           id="g6282">
          <path
             inkscape:connector-curvature="0"
             id="path6284"
             style="fill:#000000;fill-opacity:1;stroke:#ffffff;stroke-width:0.25;stroke-linecap:butt;stroke-linejoin:miter;stroke-miterlimit:4;stroke-dasharray:none;stroke-opacity:1"
             d="m 0,0 h 32.78 v -28.747 c 0,-2.855 2.273,-4.276 6.822,-4.276 4.392,0 6.588,1.421 6.588,4.276 v 14.849 c 0,4.539 -3.975,9.87 -11.919,15.994 C 18.912,13.446 9.359,21.083 5.616,24.974 1.87,28.877 0,33.16 0,37.816 v 14.069 c 0,16.25 13.924,24.371 41.783,24.371 24.944,0 37.418,-7.395 37.418,-22.183 V 32.407 H 46.42 v 23.061 c 0,2.509 -1.83,3.753 -5.492,3.753 -4.287,0 -6.428,-2.411 -6.428,-7.244 l 0.691,-8.128 C 35.191,39.186 39.249,33.776 47.366,27.6 62.457,16.59 72.052,8.9 76.148,4.539 c 4.097,-4.37 6.147,-9.321 6.147,-14.848 V -26.297 C 82.295,-42.959 68.328,-51.29 40.4,-51.29 13.466,-51.29 0,-43.712 0,-28.577 Z" />
        </g>
        <g
           transform="translate(304.4243,4300.9688)"
           id="g6286">
          <path
             inkscape:connector-curvature="0"
             id="path6288"
             style="fill:#000100;fill-opacity:1;fill-rule:nonzero;stroke:none"
             d="m 0,0 v 27.745 c 0,3.961 -1.837,5.946 -5.505,5.946 -3.743,0 -5.613,-1.985 -5.613,-5.946 V 0 Z m 32.666,-18.148 h -43.784 v -28.261 c 0,-4.108 1.87,-6.157 5.613,-6.157 3.668,0 5.505,2.049 5.505,6.157 v 24.397 h 32.666 v -24.614 c 0,-16.335 -12.802,-24.508 -38.396,-24.508 -25.371,0 -38.054,8.514 -38.054,25.556 v 72.49 c 0,17.03 12.683,25.557 38.054,25.557 25.594,0 38.396,-8.18 38.396,-24.515 z" />
        </g>
        <g
           style="fill:#000000"
           transform="translate(304.4243,4300.9688)"
           id="g6290">
          <path
             inkscape:connector-curvature="0"
             id="path6292"
             style="fill:#000000;stroke:#ffffff;stroke-width:0.25;stroke-linecap:butt;stroke-linejoin:miter;stroke-miterlimit:4;stroke-dasharray:none;stroke-opacity:1"
             d="m 0,0 v 27.745 c 0,3.961 -1.837,5.946 -5.505,5.946 -3.743,0 -5.613,-1.985 -5.613,-5.946 V 0 Z m 32.666,-18.148 h -43.784 v -28.261 c 0,-4.108 1.87,-6.157 5.613,-6.157 3.668,0 5.505,2.049 5.505,6.157 v 24.397 h 32.666 v -24.614 c 0,-16.335 -12.802,-24.508 -38.396,-24.508 -25.371,0 -38.054,8.514 -38.054,25.556 v 72.49 c 0,17.03 12.683,25.557 38.054,25.557 25.594,0 38.396,-8.18 38.396,-24.515 z" />
        </g>
        <g
           transform="translate(421.792,4302.4297)"
           id="g6294">
          <path
             inkscape:connector-curvature="0"
             id="path6296"
             style="fill:#000100;fill-opacity:1;fill-rule:nonzero;stroke:none"
             d="m 0,0 h -32.662 v 26.284 c 0,3.68 -1.873,5.534 -5.619,5.534 -3.747,0 -5.621,-1.781 -5.621,-5.325 V -70.925 H -76.564 V 50.17 h 32.662 v -4.067 c 4.363,3.268 11.083,4.905 20.173,4.905 6.497,0 12.079,-1.585 16.742,-4.755 C -2.332,43.09 0,38.937 0,33.796 Z" />
        </g>
        <g
           style="fill:#000000;fill-opacity:1"
           transform="translate(421.792,4302.4297)"
           id="g6298">
          <path
             inkscape:connector-curvature="0"
             id="path6300"
             style="fill:#000000;fill-opacity:1;stroke:#ffffff;stroke-width:0.25;stroke-linecap:butt;stroke-linejoin:miter;stroke-miterlimit:4;stroke-dasharray:none;stroke-opacity:1"
             d="m 0,0 h -32.662 v 26.284 c 0,3.68 -1.873,5.534 -5.619,5.534 -3.747,0 -5.621,-1.781 -5.621,-5.325 V -70.925 H -76.564 V 50.17 h 32.662 v -4.067 c 4.363,3.268 11.083,4.905 20.173,4.905 6.497,0 12.079,-1.585 16.742,-4.755 C -2.332,43.09 0,38.937 0,33.796 Z" />
        </g>
        <g
           transform="translate(512.459,4352.5996)"
           id="g6302">
          <path
             inkscape:connector-curvature="0"
             id="path6304"
             style="fill:#000100;fill-opacity:1;fill-rule:nonzero;stroke:none"
             d="M 0,0 -23.867,-121.095 H -63.256 L -87.345,0 H -54.5 L -43.214,-71.554 -32.263,0 Z" />
        </g>
        <g
           style="fill:#000000;fill-opacity:1"
           transform="translate(512.459,4352.5996)"
           id="g6306">
          <path
             inkscape:connector-curvature="0"
             id="path6308"
             style="fill:#000000;fill-opacity:1;stroke:#ffffff;stroke-width:0.25;stroke-linecap:butt;stroke-linejoin:miter;stroke-miterlimit:4;stroke-dasharray:none;stroke-opacity:1"
             d="M 0,0 -23.867,-121.095 H -63.256 L -87.345,0 H -54.5 L -43.214,-71.554 -32.263,0 Z" />
        </g>
        <g
           transform="translate(587.6738,4429.4326)"
           id="g6310">
          <path
             inkscape:connector-curvature="0"
             id="path6312"
             style="fill:#000100;fill-opacity:1;fill-rule:nonzero;stroke:none"
             d="m 0,0 v -156.948 c 8.947,0 14.449,1.795 16.504,5.385 2.071,3.582 3.099,13.334 3.099,29.25 v 92.689 c 0,10.807 -0.348,17.736 -1.028,20.782 -0.695,3.046 -2.267,5.279 -4.717,6.706 C 11.396,-0.714 6.785,0 0,0 m -62.038,40.824 h 46.424 c 29.958,0 50.222,-1.383 60.786,-4.127 10.558,-2.758 18.595,-7.276 24.096,-13.558 5.502,-6.293 8.934,-13.288 10.31,-21.004 1.375,-7.709 2.068,-22.864 2.068,-45.461 v -83.56 c 0,-21.415 -1.008,-35.734 -3.025,-42.951 -2.018,-7.225 -5.528,-12.87 -10.532,-16.95 -5.016,-4.074 -11.198,-6.922 -18.575,-8.548 -7.36,-1.617 -18.469,-2.43 -33.297,-2.43 h -78.255 z" />
        </g>
        <g
           transform="translate(587.6738,4429.4326)"
           id="g6314">
          <path
             inkscape:connector-curvature="0"
             id="path6316"
             style="fill:none;stroke:#ffffff;stroke-width:0.25;stroke-linecap:butt;stroke-linejoin:miter;stroke-miterlimit:4;stroke-dasharray:none;stroke-opacity:1"
             d="m 0,0 v -156.948 c 8.947,0 14.449,1.795 16.504,5.385 2.071,3.582 3.099,13.334 3.099,29.25 v 92.689 c 0,10.807 -0.348,17.736 -1.028,20.782 -0.695,3.046 -2.267,5.279 -4.717,6.706 C 11.396,-0.714 6.785,0 0,0 Z m -62.038,40.824 h 46.424 c 29.958,0 50.222,-1.383 60.786,-4.127 10.558,-2.758 18.595,-7.276 24.096,-13.558 5.502,-6.293 8.934,-13.288 10.31,-21.004 1.375,-7.709 2.068,-22.864 2.068,-45.461 v -83.56 c 0,-21.415 -1.008,-35.734 -3.025,-42.951 -2.018,-7.225 -5.528,-12.87 -10.532,-16.95 -5.016,-4.074 -11.198,-6.922 -18.575,-8.548 -7.36,-1.617 -18.469,-2.43 -33.297,-2.43 h -78.255 z" />
        </g>
        <g
           style="fill:#000000;fill-opacity:1"
           transform="translate(754.4912,4339.2446)"
           id="g6318">
          <path
             inkscape:connector-curvature="0"
             id="path6320"
             style="fill:#000000;fill-opacity:1;fill-rule:nonzero;stroke:none"
             d="m 0,0 v -66.76 c 8.751,0.302 14.318,1.671 16.727,4.126 2.411,2.457 3.616,8.502 3.616,18.13 v 22.255 c 0,10.211 -1.087,16.401 -3.248,18.562 C 14.933,-1.525 9.235,-0.294 0,0 M 0,90.188 V 37.137 c 2.659,0.097 4.716,0.15 6.196,0.15 6.091,0 9.968,1.493 11.638,4.493 1.67,2.993 2.509,11.566 2.509,25.713 0,7.467 -0.694,12.699 -2.07,15.693 -1.375,3 -3.163,4.887 -5.377,5.672 C 10.69,89.645 6.393,90.09 0,90.188 m -62.037,40.824 h 61.893 c 19.55,0 34.36,-1.526 44.432,-4.572 10.067,-3.039 18.195,-9.203 24.391,-18.477 6.183,-9.28 9.28,-24.227 9.28,-44.845 0,-13.944 -2.187,-23.663 -6.556,-29.159 C 67.028,28.458 58.409,24.24 45.539,21.293 59.882,18.05 69.608,12.667 74.718,5.148 c 5.108,-7.519 7.663,-19.045 7.663,-34.575 v -22.117 c 0,-16.126 -1.841,-28.065 -5.528,-35.834 -3.681,-7.768 -9.55,-13.073 -17.605,-15.921 -8.056,-2.85 -24.561,-4.278 -49.516,-4.278 h -71.769 z" />
        </g>
        <g
           transform="translate(754.4912,4339.2446)"
           id="g6322">
          <path
             inkscape:connector-curvature="0"
             id="path6324"
             style="fill:none;stroke:#ffffff;stroke-width:0.25;stroke-linecap:butt;stroke-linejoin:miter;stroke-miterlimit:4;stroke-dasharray:none;stroke-opacity:1"
             d="m 0,0 v -66.76 c 8.751,0.302 14.318,1.671 16.727,4.126 2.411,2.457 3.616,8.502 3.616,18.13 v 22.255 c 0,10.211 -1.087,16.401 -3.248,18.562 C 14.933,-1.525 9.235,-0.294 0,0 Z M 0,90.188 V 37.137 c 2.659,0.097 4.716,0.15 6.196,0.15 6.091,0 9.968,1.493 11.638,4.493 1.67,2.993 2.509,11.566 2.509,25.713 0,7.467 -0.694,12.699 -2.07,15.693 -1.375,3 -3.163,4.887 -5.377,5.672 C 10.69,89.645 6.393,90.09 0,90.188 Z m -62.037,40.824 h 61.893 c 19.55,0 34.36,-1.526 44.432,-4.572 10.067,-3.039 18.195,-9.203 24.391,-18.477 6.183,-9.28 9.28,-24.227 9.28,-44.845 0,-13.944 -2.187,-23.663 -6.556,-29.159 C 67.028,28.458 58.409,24.24 45.539,21.293 59.882,18.05 69.608,12.667 74.718,5.148 c 5.108,-7.519 7.663,-19.045 7.663,-34.575 v -22.117 c 0,-16.126 -1.841,-28.065 -5.528,-35.834 -3.681,-7.768 -9.55,-13.073 -17.605,-15.921 -8.056,-2.85 -24.561,-4.278 -49.516,-4.278 h -71.769 z" />
        </g>
        <path
           transform="matrix(0.75000002,0,0,-0.75000002,118.583,4488.2551)"
           inkscape:connector-curvature="0"
           id="path6652"
           d="M 10.514217,253.69416 V 166.5513 H 31.942788 53.37136 v 87.14286 87.14286 H 31.942788 10.514217 Z"
           style="fill:#000000;stroke-width:2.85714293" />
        <path
           transform="matrix(0.75000002,0,0,-0.75000002,118.583,4488.2551)"
           inkscape:connector-curvature="0"
           id="path6654"
           d="M 10.514217,140.83702 V 126.5513 H 31.942788 53.37136 v 14.28572 14.28571 H 31.942788 10.514217 Z"
           style="fill:#000000;stroke-width:2.85714293" />
        <path
           transform="matrix(0.75000002,0,0,-0.75000002,118.583,4488.2551)"
           inkscape:connector-curvature="0"
           id="path6656"
           d="M 544.79993,183.68298 V 26.024515 l 67.85714,0.986726 c 66.49234,0.96688 68.18338,1.139478 84.07749,8.581423 20.66257,9.674638 30.2688,23.420988 33.89503,48.503211 3.42967,23.722545 3.40234,184.232865 -0.0354,208.018575 -3.24546,22.45528 -8.97124,30.85448 -27.3713,40.15114 -13.78283,6.9638 -15.94571,7.16708 -86.28008,8.10934 l -72.14286,0.96651 z m 102.81888,98.42077 c 3.64884,-3.64549 4.44133,-18.69159 5.07559,-96.36479 0.84976,-104.064425 0.58142,-105.732713 -17.24588,-107.217273 l -10.64859,-0.88676 v 106.243903 106.2439 l 9.24745,-1.84949 c 5.0861,-1.01722 11.19324,-3.79349 13.57143,-6.16949 z"
           style="fill:#000000;stroke-width:2.85714293" />
        <path
           transform="matrix(0.75000002,0,0,-0.75000002,118.583,4488.2551)"
           inkscape:connector-curvature="0"
           id="path6658"
           d="M 544.79993,183.68298 V 26.024515 l 67.85714,0.986726 c 66.49234,0.96688 68.18338,1.139478 84.07749,8.581423 20.66257,9.674638 30.2688,23.420988 33.89503,48.503211 3.42967,23.722545 3.40234,184.232865 -0.0354,208.018575 -3.24546,22.45528 -8.97124,30.85448 -27.3713,40.15114 -13.78283,6.9638 -15.94571,7.16708 -86.28008,8.10934 l -72.14286,0.96651 z m 102.81888,98.4185 c 3.68871,-3.68724 4.32398,-18.40322 4.32398,-100.16458 0,-91.575199 -0.24693,-96.022968 -5.54609,-99.899676 -3.05034,-2.231543 -9.15749,-4.057352 -13.57143,-4.057352 h -8.02534 V 184.0513 290.12273 l 9.24745,-1.84949 c 5.0861,-1.01722 11.19324,-3.79451 13.57143,-6.17176 z"
           style="fill:#000000;stroke-width:2.85714293" />
      </g>
    </g>
  </g>
</svg>
